<svg xmlns="http://www.w3.org/2000/svg" viewBox="0 0 740 740"><path fill="#212121"  d="M429 741H1V1h740v740H429m-45.159-329.972c-3.362-18.03 1.722-33.064 16.542-44.1 13.703-10.205 31.868-8.723 45.94 3.47 3.079 2.669 5.19 3.226 8.42.376 3.858-3.405 8.198-6.264 12.328-9.363 4.344-3.259 8.685-6.521 13.273-9.966-1.338-1.547-2.136-2.576-3.04-3.5-21.275-21.775-58.09-28.893-88.23-16.3-23.585 9.855-40.215 26.286-43.294 52.869-1.237 10.674-.923 21.653-.132 32.406 1.01 13.717 6.717 25.803 16.671 35.414 25.154 24.286 54.703 29.261 87.348 18.87 11.945-3.801 21.818-11.004 30.686-20.527-1.805-1.465-3.16-2.64-4.59-3.714-7.058-5.3-14.257-10.422-21.15-15.928-3.057-2.442-5.036-2.397-8.006.26-8.16 7.3-17.87 11.029-28.895 9.944-17.553-1.728-28.427-11.422-33.87-30.21m126.946 51.444c0 2.5.265 5.034-.057 7.492-.64 4.897.825 6.75 6.17 6.508 10.312-.469 20.66-.121 30.994-.148 1.577-.003 3.154-.197 4.606-.294V250.359c-12.088 0-23.735.226-35.366-.107-4.862-.14-6.508.909-6.492 6.23.208 68.333.142 136.666.145 205.99M268.461 286.714c-26.894 58.738-53.79 117.473-80.669 176.218-1.175 2.57-2.61 5.145-3.08 7.863-.256 1.486.808 4.14 2.051 4.794 8.443 4.436 20.94-.086 24.934-8.804 30.93-67.51 61.837-135.03 92.75-202.547.278-.606.57-1.206.818-1.824 2.223-5.544.77-7.907-5.072-8.157-2.162-.092-4.333.041-6.494-.055-7.212-.32-11.923 2.91-14.743 9.57-3.18 7.509-6.77 14.844-10.495 22.942m-172.24 54.005c3.204-3.153 6.557-6.173 9.546-9.519 1.36-1.52 2.934-3.757 2.793-5.542-.462-5.872-4.89-9.363-9.452-12.065-4.003-2.372-7.224.42-10.077 3.202-18.594 18.133-37.314 36.14-55.712 54.469-3.826 3.81-6.968 8.53-9.57 13.297-5.358 9.813-5.342 19.895.951 29.356 3.299 4.958 7.022 9.736 11.144 14.027 16.377 17.05 32.98 33.884 49.515 50.782 7.228 7.386 9.881 7.375 17.25.054.59-.587 1.213-1.146 1.762-1.77 3.648-4.136 3.845-7.3.222-11.496-3.15-3.648-6.63-7.015-10-10.47-13.72-14.063-27.52-28.048-41.158-42.187-10.245-10.62-10.02-20.589.453-30.83 13.928-13.62 27.881-27.213 42.333-41.308m551.93 143.314c3.14-1.53 6.974-2.367 9.307-4.703 17.305-17.33 34.388-34.886 51.353-52.552 3.78-3.937 7.08-8.412 10.129-12.955 5.772-8.603 6.463-18.102 1.69-27.07-3.535-6.638-8.18-12.98-13.461-18.338-17.076-17.32-34.594-34.21-52.17-51.025-2.299-2.2-7.013-4.989-8.74-4.054-4.263 2.306-8.173 6.145-10.832 10.266-2.372 3.677 1.33 6.695 3.969 9.271 16.452 16.063 32.897 32.133 49.372 48.172 11.6 11.293 11.807 21.221.585 32.749-7.555 7.76-15.144 15.486-22.705 23.24a29600.484 29600.484 0 00-26.849 27.577c-3.205 3.296-5.065 7.066-1.581 11.025 2.703 3.073 6.14 5.5 9.933 8.397z"/><path fill="#F1F1F1" d="M383.955 411.435c5.33 18.382 16.204 28.076 33.757 29.804 11.025 1.085 20.734-2.644 28.895-9.944 2.97-2.657 4.95-2.702 8.007-.26 6.892 5.506 14.091 10.627 21.148 15.928 1.43 1.074 2.786 2.249 4.59 3.714-8.867 9.523-18.74 16.726-30.685 20.528-32.645 10.39-62.194 5.415-87.348-18.87-9.954-9.612-15.661-21.698-16.67-35.415-.792-10.753-1.106-21.732.13-32.406 3.08-26.583 19.71-43.014 43.294-52.868 30.142-12.594 66.956-5.476 88.231 16.298.904.925 1.702 1.954 3.04 3.501-4.588 3.445-8.93 6.707-13.273 9.966-4.13 3.099-8.47 5.958-12.329 9.363-3.228 2.85-5.34 2.293-8.42-.375-14.07-12.194-32.236-13.676-45.94-3.471-14.82 11.036-19.903 26.07-16.427 44.507z"/><path fill="#F2F2F2" d="M510.788 461.977c-.003-68.83.063-137.162-.145-205.495-.016-5.321 1.63-6.37 6.492-6.23 11.631.333 23.278.107 35.366.107v225.672c-1.452.097-3.029.29-4.606.294-10.333.027-20.682-.32-30.994.148-5.345.243-6.81-1.61-6.17-6.508.322-2.458.057-4.992.057-7.988z"/><path fill="#EFEFEF" d="M268.618 286.37c3.568-7.755 7.158-15.09 10.338-22.6 2.82-6.659 7.53-9.89 14.743-9.569 2.161.096 4.332-.037 6.494.055 5.842.25 7.295 2.613 5.072 8.157-.248.618-.54 1.218-.817 1.824-30.914 67.517-61.821 135.037-92.751 202.547-3.995 8.718-16.49 13.24-24.934 8.804-1.243-.653-2.307-3.308-2.05-4.794.469-2.718 1.904-5.294 3.08-7.863 26.877-58.745 53.774-117.48 80.825-176.561z"/><path fill="#EEE" d="M95.966 340.963c-14.197 13.85-28.15 27.443-42.078 41.063-10.473 10.241-10.698 20.21-.453 30.83 13.639 14.14 27.439 28.124 41.158 42.187 3.37 3.455 6.85 6.822 10 10.47 3.623 4.196 3.426 7.36-.222 11.497-.55.623-1.172 1.182-1.762 1.769-7.369 7.321-10.022 7.332-17.25-.054-16.535-16.898-33.138-33.732-49.515-50.782-4.122-4.291-7.845-9.069-11.144-14.027-6.293-9.46-6.31-19.543-.952-29.356 2.603-4.767 5.745-9.487 9.57-13.297 18.4-18.329 37.119-36.336 55.713-54.47 2.853-2.782 6.074-5.573 10.077-3.201 4.563 2.702 8.99 6.193 9.452 12.065.14 1.785-1.434 4.022-2.793 5.542-2.99 3.346-6.342 6.366-9.801 9.764z"/><path fill="#EFEFEF" d="M647.81 483.94c-3.452-2.805-6.889-5.232-9.592-8.305-3.484-3.96-1.624-7.73 1.581-11.025 8.945-9.196 17.891-18.393 26.849-27.578 7.56-7.753 15.15-15.48 22.705-23.24 11.222-11.527 11.015-21.455-.585-32.748-16.475-16.039-32.92-32.11-49.372-48.172-2.64-2.576-6.34-5.594-3.969-9.27 2.659-4.122 6.57-7.96 10.831-10.267 1.728-.935 6.442 1.855 8.74 4.054 17.577 16.815 35.095 33.705 52.17 51.025 5.283 5.358 9.927 11.7 13.461 18.339 4.774 8.967 4.083 18.466-1.69 27.069-3.048 4.543-6.348 9.018-10.128 12.955-16.965 17.666-34.048 35.221-51.353 52.552-2.333 2.336-6.168 3.172-9.648 4.612z"/></svg>