<?xml version="1.0" encoding="UTF-8"?>
<svg version="1.1" xmlns="http://www.w3.org/2000/svg" width="1078" height="155">
<!-- <path d="M0 0 C355.74 0 711.48 0 1078 0 C1078 51.15 1078 102.3 1078 155 C722.26 155 366.52 155 0 155 C0 103.85 0 52.7 0 0 Z " fill="#202124" transform="translate(0,0)"/> -->
<path d="M0 0 C2.93273511 2.16876194 3.89115012 3.35955867 4.50793457 6.98854065 C4.51111694 8.15449265 4.51429932 9.32044464 4.51757812 10.52172852 C4.5245874 11.1678862 4.53159668 11.81404388 4.53881836 12.4797821 C4.55640052 14.613263 4.54476701 16.74541208 4.53125 18.87890625 C4.53394719 20.37141675 4.53783151 21.86392554 4.54284668 23.35643005 C4.5487439 26.48787124 4.54018076 29.61885606 4.52148438 32.75024414 C4.49883223 36.7357071 4.51172747 40.72008429 4.53577423 44.70550632 C4.55034536 47.79166077 4.54557268 50.87756527 4.53526306 53.96372795 C4.53261962 55.43112253 4.53578037 56.89854082 4.54518127 58.36590767 C4.60831387 71.00304332 2.69844357 81.4148219 -6 91 C-6.48984375 91.54398437 -6.9796875 92.08796875 -7.484375 92.6484375 C-14.00276409 99.00548033 -23.18410496 102.24474911 -32.1875 102.5 C-43.2529863 101.94672568 -52.54650212 97.93222992 -60.25 89.875 C-68.36144391 79.40715898 -69.48616974 67.78409279 -68 55 C-67.19777186 51.49379113 -66.0322468 48.94886851 -64 46 C-63.51402344 45.23558594 -63.02804687 44.47117188 -62.52734375 43.68359375 C-57.59051808 36.59930727 -51.45513641 32.75023216 -43.5 29.625 C-32.9633463 27.7434547 -23.78712062 29.48310911 -14.875 35.625 C-12 38 -12 38 -11 40 C-10.98541748 38.89487061 -10.97083496 37.78974121 -10.95581055 36.65112305 C-10.89785734 32.55264861 -10.82062481 28.45472533 -10.73754883 24.35668945 C-10.70428536 22.58269188 -10.67625782 20.8085881 -10.65356445 19.03442383 C-10.62004398 16.48472824 -10.56773135 13.93600708 -10.51171875 11.38671875 C-10.50532883 10.59287277 -10.4989389 9.79902679 -10.49235535 8.98112488 C-10.3465261 3.52534513 -10.3465261 3.52534513 -8.68286133 1.00317383 C-5.74785864 -0.74641649 -3.30899133 -0.40636736 0 0 Z " fill="#F7F7F7" transform="translate(403,23)"/>
<path d="M0 0 C2.75 2.5 2.75 2.5 5 5 C5.680625 5.721875 6.36125 6.44375 7.0625 7.1875 C13.78620517 16.94771719 13.59541359 26.65006002 13.46655273 38.10668945 C13.43731864 40.95517144 13.44602632 43.80181956 13.45898438 46.65039062 C13.452754 48.46355072 13.44436856 50.27670497 13.43359375 52.08984375 C13.43652939 52.9398143 13.43946503 53.78978485 13.44248962 54.66551208 C13.3479147 60.54353692 13.3479147 60.54353692 11.68959045 62.71925354 C8.84662607 64.87428263 6.42570661 64.42070081 3 64 C0.5625 62.3125 0.5625 62.3125 -1 60 C-1.09765625 57.35546875 -1.09765625 57.35546875 -1 55 C-1.60585938 55.47050781 -2.21171875 55.94101563 -2.8359375 56.42578125 C-11.51270049 62.8732836 -20.0495475 66.43339256 -31 65 C-39.77292515 63.11199602 -46.15809518 58.75931587 -52 52 C-54.05776797 48.78775658 -55.64150071 45.56040022 -57 42 C-57.36351562 41.07058594 -57.72703125 40.14117187 -58.1015625 39.18359375 C-60.46270963 30.81692024 -60.22553383 20.17532314 -56.44921875 12.3046875 C-50.65883902 3.0962669 -42.58024244 -4.26692073 -32 -7.375 C-20.31230764 -9.65151839 -9.49442887 -7.17923257 0 0 Z " fill="#F7F7F7" transform="translate(891,60)"/>
<path d="M0 0 C7.60617388 5.71086498 12.37981889 12.34258166 15.3828125 21.3515625 C16.37887458 39.47223041 16.37887458 39.47223041 12.3828125 47.3515625 C12.0425 48.03347656 11.7021875 48.71539062 11.3515625 49.41796875 C6.35067094 58.32158311 -0.94770538 63.41759239 -10.6171875 66.3515625 C-20.42732567 68.67257311 -30.10434846 67.82929208 -39.03125 63.0625 C-46.68788448 58.27390251 -51.4904564 52.79373647 -54.6171875 44.3515625 C-54.96523437 43.62582031 -55.31328125 42.90007812 -55.671875 42.15234375 C-58.48696175 33.81177682 -57.71095416 22.35875809 -53.8671875 14.484375 C-48.45849671 5.25579633 -41.64924865 -1.38524309 -31.1796875 -4.5859375 C-20.1749587 -7.05891026 -9.70722068 -6.11410019 0 0 Z " fill="#F7F7F7" transform="translate(303.6171875,57.6484375)"/>
<path d="M0 0 C6.36761674 5.19084979 10.76171207 12.09796904 11.6875 20.3125 C12.44232558 30.28992172 12.44232558 30.28992172 10.48442078 32.94233704 C8.07526961 34.77932938 6.585527 34.6749554 3.57348633 34.65307617 C2.53263382 34.65284958 1.49178131 34.65262299 0.41938782 34.65238953 C-1.26354118 34.62916374 -1.26354118 34.62916374 -2.98046875 34.60546875 C-4.13041824 34.60122391 -5.28036774 34.59697906 -6.46516418 34.59260559 C-10.14367941 34.57579189 -13.82164992 34.53813377 -17.5 34.5 C-19.99152856 34.48495669 -22.48306568 34.47126767 -24.97460938 34.45898438 C-31.08742593 34.42587953 -37.19992405 34.37565305 -43.3125 34.3125 C-42.43223944 36.23636845 -41.53256309 38.15135958 -40.625 40.0625 C-40.12613281 41.12984375 -39.62726562 42.1971875 -39.11328125 43.296875 C-36.09678244 48.34836542 -31.99029229 50.91968967 -26.54296875 52.76953125 C-18.42520885 54.74565844 -11.65806568 53.00754213 -4.3125 49.3125 C-3.9825 48.9825 -3.6525 48.6525 -3.3125 48.3125 C2.93271739 47.8498913 2.93271739 47.8498913 5.625 49.5 C7.15017639 52.10177148 7.32427123 53.34090092 6.6875 56.3125 C2.01211707 61.49332974 -3.7909991 63.22398166 -10.3125 65.3125 C-11.3025 65.6425 -12.2925 65.9725 -13.3125 66.3125 C-25.67674398 67.29110074 -35.57810448 64.61280969 -45.1875 56.78515625 C-52.2087951 50.35401311 -55.81684911 42.380683 -56.5859375 32.96484375 C-56.88960659 21.85756273 -54.8075207 13.27781821 -47.75 4.4375 C-34.85687059 -9.04390908 -15.11365878 -10.31521578 0 0 Z " fill="#F8F8F8" transform="translate(645.3125,58.6875)"/>
<path d="M0 0 C6.97322823 4.97528082 12.58670831 11.25982891 14.7734375 19.67578125 C15.18769092 24.70819311 15.30844549 29.6429735 14.7734375 34.67578125 C12.7734375 36.67578125 12.7734375 36.67578125 10.52084351 36.91629028 C9.11519638 36.90962845 9.11519638 36.90962845 7.68115234 36.90283203 C6.62020355 36.90268097 5.55925476 36.90252991 4.46615601 36.90237427 C3.31716827 36.8920517 2.16818054 36.88172913 0.984375 36.87109375 C-0.18918549 36.86826385 -1.36274597 36.86543396 -2.5718689 36.86251831 C-6.33186912 36.8512948 -10.09163389 36.82618617 -13.8515625 36.80078125 C-16.3958299 36.79075426 -18.94010102 36.78162793 -21.484375 36.7734375 C-27.7318516 36.75134839 -33.97919023 36.71784949 -40.2265625 36.67578125 C-39.45053389 38.28378034 -38.66802902 39.888655 -37.8828125 41.4921875 C-37.44775391 42.38623291 -37.01269531 43.28027832 -36.56445312 44.20141602 C-33.72530753 49.45228109 -29.15698331 53.47481934 -23.3984375 55.234375 C-15.18015502 56.90463745 -8.49877779 55.65552104 -1.2265625 51.67578125 C1.61427391 50.25536304 3.62821028 50.36125853 6.7734375 50.67578125 C9.2109375 52.36328125 9.2109375 52.36328125 10.7734375 54.67578125 C10.66796875 57.12109375 10.66796875 57.12109375 9.7734375 59.67578125 C7.6640625 61.40625 7.6640625 61.40625 5.0234375 62.86328125 C4.16234375 63.35183594 3.30125 63.84039062 2.4140625 64.34375 C-7.43442993 69.31170254 -17.82350968 70.27748571 -28.4140625 67.05078125 C-38.07237 63.489827 -45.87589751 56.96129845 -50.3671875 47.6015625 C-52.59473188 42.42278574 -52.82401503 37.75493873 -52.7265625 32.17578125 C-52.74203125 31.29019531 -52.7575 30.40460938 -52.7734375 29.4921875 C-52.71670591 19.83363408 -48.84831224 11.6662253 -42.2265625 4.67578125 C-30.50228923 -5.27072313 -13.57087709 -8.07110058 0 0 Z " fill="#F9F9F9" transform="translate(478.2265625,56.32421875)"/>
<path d="M0 0 C1.71875 2.0390625 1.71875 2.0390625 1.65625 5.6640625 C0.71875 9.0390625 0.71875 9.0390625 -2.28125 11.0390625 C-5.50451676 11.65301807 -7.51738217 11.49508152 -10.35546875 9.80078125 C-11.8843028 8.72552798 -13.41293987 7.64999459 -14.94140625 6.57421875 C-22.99185719 1.2923703 -32.46949812 0.76979196 -41.796875 2.5078125 C-51.82951862 5.45446307 -59.20194398 11.72103556 -64.46875 20.6015625 C-69.78694307 30.68779074 -70.04986539 42.72170098 -67.37109375 53.8046875 C-66.20483523 56.72970888 -64.90511289 59.34414111 -63.28125 62.0390625 C-62.8584375 62.7815625 -62.435625 63.5240625 -62 64.2890625 C-57.46441554 71.25065725 -50.33820884 75.37281155 -42.78125 78.4765625 C-30.48442709 80.45283761 -20.32844525 77.97973496 -10.02734375 71.01953125 C-7.35771101 69.52047573 -5.25161512 69.55551469 -2.28125 70.0390625 C0.71875 72.0390625 0.71875 72.0390625 1.53125 75.7265625 C1.40281504 78.68056665 0.97642843 79.76330138 -1.0625 81.9453125 C-3.70513585 83.90154943 -6.38309512 85.48634493 -9.28125 87.0390625 C-10.65990234 87.80476563 -10.65990234 87.80476563 -12.06640625 88.5859375 C-23.32188502 93.86518709 -38.66787757 94.38188719 -50.46875 90.4765625 C-52.90625 89.359375 -52.90625 89.359375 -55.28125 88.0390625 C-56.209375 87.54148437 -57.1375 87.04390625 -58.09375 86.53125 C-70.89826308 79.05035241 -76.75673791 68.58117567 -82.453125 55.30859375 C-85.76489405 42.23335464 -84.47496224 26.3488291 -77.92578125 14.609375 C-76.4840941 12.31349788 -74.94181766 10.18095412 -73.28125 8.0390625 C-72.76820313 7.35070312 -72.25515625 6.66234375 -71.7265625 5.953125 C-64.34183073 -3.2689563 -53.40257212 -9.12214759 -41.96875 -11.7109375 C-26.17355621 -12.7817981 -12.38112148 -10.64267634 0 0 Z " fill="#F8F8F8" transform="translate(235.28125,32.9609375)"/>
<path d="M0 0 C1.0209375 -0.01160156 1.0209375 -0.01160156 2.0625 -0.0234375 C4.70945753 0.52089651 5.40369002 1.17486001 7 3.375 C7.33079338 5.95317111 7.4883563 8.30420167 7.51171875 10.88671875 C7.52966995 11.61494339 7.54762115 12.34316803 7.56611633 13.09346008 C7.62024213 15.41641471 7.6541208 17.73916366 7.6875 20.0625 C7.72067125 21.63870051 7.75516073 23.21487388 7.79101562 24.79101562 C7.8759693 28.65219536 7.94276876 32.51331387 8 36.375 C8.53834473 36.02928955 9.07668945 35.6835791 9.63134766 35.32739258 C10.34339355 34.87517334 11.05543945 34.4229541 11.7890625 33.95703125 C12.84407959 33.28377808 12.84407959 33.28377808 13.92041016 32.59692383 C20.87733319 28.50918025 28.51007903 28.51302246 36.21484375 29.9921875 C45.06767111 32.32677208 51.05456059 35.95921458 56.46679688 43.38842773 C61.45936701 52.54114846 60.68345324 62.56474828 60.54199219 72.69335938 C60.4997341 75.89514653 60.50096639 79.09485289 60.5078125 82.296875 C60.49733212 84.33334799 60.48440027 86.36981018 60.46875 88.40625 C60.46844788 89.84055359 60.46844788 89.84055359 60.46813965 91.30383301 C60.45222778 92.1890564 60.43631592 93.07427979 60.41992188 93.98632812 C60.41150269 94.7636731 60.4030835 95.54101807 60.39440918 96.34191895 C59.89273719 98.92791308 59.09996727 99.81668553 57 101.375 C53.28204426 101.84819437 50.99684183 102.02410115 47.80664062 99.94677734 C45.06705544 96.04694081 45.47276489 92.44482079 45.53125 87.7890625 C45.52420044 86.8545224 45.51715088 85.9199823 45.5098877 84.9571228 C45.48040323 80.96443489 45.49701383 76.97223453 45.50927734 72.97949219 C45.51166206 70.0615537 45.49071531 67.1444031 45.46875 64.2265625 C45.48006958 63.32950592 45.49138916 62.43244934 45.50305176 61.50820923 C45.4584491 55.95550854 44.71385399 52.77437096 41 48.375 C35.05544339 43.1381287 30.56873331 42.86767936 22.7890625 43.02734375 C17.84902083 43.48060531 14.44473473 44.77933617 11 48.375 C7.19314623 53.12882938 7.57525356 57.79103046 7.59375 63.6015625 C7.58291382 64.58619476 7.57207764 65.57082703 7.56091309 66.58529663 C7.51507539 70.78923853 7.50353669 74.99311838 7.48876953 79.19726562 C7.47311292 82.26975703 7.44012784 85.34172688 7.40625 88.4140625 C7.40927124 89.36721344 7.41229248 90.32036438 7.41540527 91.30239868 C7.40023865 92.62925186 7.40023865 92.62925186 7.38476562 93.98291016 C7.38168396 95.14942612 7.38168396 95.14942612 7.37854004 96.33950806 C6.90228225 98.90044953 6.02537868 99.78645632 4 101.375 C2.0625 101.80859375 2.0625 101.80859375 0 101.8125 C-0.680625 101.83183594 -1.36125 101.85117188 -2.0625 101.87109375 C-4 101.375 -4 101.375 -5.59683228 99.90870667 C-7.69767168 96.11521092 -7.418338 92.6093732 -7.38818359 88.33959961 C-7.39344055 87.42699875 -7.39869751 86.51439789 -7.40411377 85.57414246 C-7.41731502 82.55836868 -7.40857588 79.54312287 -7.3984375 76.52734375 C-7.40045802 74.43274331 -7.40336928 72.33814356 -7.40713501 70.24354553 C-7.41155839 65.85459696 -7.4051261 61.46583158 -7.39111328 57.0769043 C-7.37401095 51.44524802 -7.38386927 45.81402032 -7.40183067 40.18237972 C-7.41265906 35.85788225 -7.40922668 31.53348679 -7.4014473 27.20898628 C-7.39944322 25.13210563 -7.4019118 23.05521578 -7.40888596 20.97834587 C-7.41648598 18.07898201 -7.40491696 15.18031749 -7.38818359 12.28100586 C-7.39425629 11.41910645 -7.40032898 10.55720703 -7.40658569 9.66918945 C-7.34363789 3.79612155 -7.34363789 3.79612155 -5.59728432 1.65599918 C-3.60871857 0.06119789 -2.52479443 -0.02869085 0 0 Z " fill="#F7F7F7" transform="translate(754,22.625)"/>
<path d="M0 0 C1.0209375 -0.01160156 1.0209375 -0.01160156 2.0625 -0.0234375 C4.62959734 0.50447365 5.39924937 1.31008873 7 3.375 C7.36076355 5.78581238 7.36076355 5.78581238 7.34057617 8.67260742 C7.34034958 9.75350143 7.34012299 10.83439545 7.33988953 11.94804382 C7.32440567 13.11374405 7.30892181 14.27944427 7.29296875 15.48046875 C7.28872391 16.67481033 7.28447906 17.86915192 7.28010559 19.09968567 C7.26328959 22.92085144 7.22563093 26.74149316 7.1875 30.5625 C7.17245699 33.15038302 7.15876792 35.73827429 7.14648438 38.32617188 C7.11337645 44.67596058 7.06314762 51.02544286 7 57.375 C8.27751426 56.25865864 9.55481719 55.14207543 10.83203125 54.02539062 C11.54335205 53.40361938 12.25467285 52.78184814 12.98754883 52.14123535 C15.34397908 50.07310547 17.67584194 47.97930527 20 45.875 C23.70430628 42.5343066 27.41591906 39.2049613 31.1953125 35.94921875 C32.3580539 34.93496597 33.50084554 33.89714012 34.6171875 32.83203125 C37.15727148 30.48278259 38.73156517 29.41710742 42.1875 28.875 C45 29.375 45 29.375 46.875 30.5 C48.53062412 33.25937354 48.32157003 35.2024371 48 38.375 C46.3125 40.68359375 46.3125 40.68359375 44 42.8125 C43.17757812 43.58078125 42.35515625 44.3490625 41.5078125 45.140625 C40.68023438 45.87796875 39.85265625 46.6153125 39 47.375 C38.29617188 48.00921875 37.59234375 48.6434375 36.8671875 49.296875 C34.93051858 51.0132953 32.97152547 52.69880426 31 54.375 C29.66662751 55.52078777 28.33329198 56.66661854 27 57.8125 C26.01 58.658125 25.02 59.50375 24 60.375 C25.29765126 63.15954333 26.72684632 65.44741613 28.6875 67.80859375 C29.21714355 68.45127197 29.74678711 69.0939502 30.29248047 69.75610352 C30.85596191 70.43471436 31.41944336 71.1133252 32 71.8125 C33.16995697 73.24683644 34.33921855 74.68174035 35.5078125 76.1171875 C37.68933879 78.78724091 39.89315102 81.4356405 42.1171875 84.0703125 C43.03726214 85.19204951 43.95657883 86.31440881 44.875 87.4375 C45.69742188 88.41847656 46.51984375 89.39945312 47.3671875 90.41015625 C49 93.375 49 93.375 48.9453125 97.12109375 C48 100.375 48 100.375 45 102.375 C41.6437161 102.77402979 39.79380065 102.97631592 37.05078125 100.8984375 C36.47714844 100.18945312 35.90351562 99.48046875 35.3125 98.75 C34.63960937 97.93402344 33.96671875 97.11804688 33.2734375 96.27734375 C32.52320313 95.31957031 31.77296875 94.36179687 31 93.375 C30.09647228 92.23037551 29.19282033 91.08584906 28.2890625 89.94140625 C26.86175547 88.12831404 25.43780934 86.31289788 24.02148438 84.49121094 C20.50560282 79.97397071 16.85358169 75.60999421 13 71.375 C10.32524657 72.04678425 10.32524657 72.04678425 8 74.375 C7.28299841 78.17075093 7.39272762 81.95971881 7.4375 85.8125 C7.45411482 87.89446536 7.45349754 89.97665723 7.43359375 92.05859375 C7.44447021 92.98212646 7.45534668 93.90565918 7.46655273 94.85717773 C6.85517518 98.15656902 5.60482998 99.32651861 3 101.375 C-0.50105296 101.95850883 -2.20198962 101.91778034 -5.15614319 99.90846252 C-7.88639188 96.15709598 -7.55266085 92.87129046 -7.50170898 88.33959961 C-7.50711197 87.42699875 -7.51251495 86.51439789 -7.51808167 85.57414246 C-7.53058709 82.55821281 -7.514067 79.54323429 -7.49609375 76.52734375 C-7.49624868 74.43274383 -7.4977367 72.33814363 -7.50050354 70.24354553 C-7.5018883 65.85453615 -7.48931527 61.46585326 -7.46655273 57.0769043 C-7.43815055 51.44522888 -7.44090923 45.81409534 -7.45364285 40.18237972 C-7.46059015 35.85786798 -7.45282186 31.53348197 -7.44038582 27.20898628 C-7.43586333 25.13211105 -7.43554145 23.05522235 -7.43945122 20.97834587 C-7.44235457 18.07894987 -7.42589899 15.18030683 -7.40405273 12.28100586 C-7.40855438 11.41910645 -7.41305603 10.55720703 -7.41769409 9.66918945 C-7.34399663 3.79643483 -7.34399663 3.79643483 -5.59686375 1.65599918 C-3.60859314 0.06101462 -2.52467037 -0.02868944 0 0 Z " fill="#F5F5F5" transform="translate(680,22.625)"/>
<path d="M0 0 C6.39239389 5.17985994 10.68409094 11.46850706 11.62402344 19.78518677 C11.99546642 25.74162664 11.97296152 31.69298628 11.88964844 37.65820312 C11.84739035 40.85999028 11.84862264 44.05969664 11.85546875 47.26171875 C11.84498837 49.29819174 11.83205652 51.33465393 11.81640625 53.37109375 C11.81610413 54.80539734 11.81610413 54.80539734 11.8157959 56.26867676 C11.79988403 57.15390015 11.78397217 58.03912354 11.76757812 58.95117188 C11.75915894 59.72851685 11.75073975 60.50586182 11.74206543 61.3067627 C11.24039344 63.89275683 10.44762352 64.78152928 8.34765625 66.33984375 C4.62970051 66.81303812 2.34449808 66.9889449 -0.84570312 64.91162109 C-3.58528831 61.01178456 -3.17957886 57.40966454 -3.12109375 52.75390625 C-3.12814331 51.81936615 -3.13519287 50.88482605 -3.14245605 49.92196655 C-3.17194052 45.92927864 -3.15532992 41.93707828 -3.14306641 37.94433594 C-3.14068169 35.02639745 -3.16162844 32.10924685 -3.18359375 29.19140625 C-3.17227417 28.29434967 -3.16095459 27.39729309 -3.14929199 26.47305298 C-3.19389465 20.92035229 -3.93848976 17.73921471 -7.65234375 13.33984375 C-13.59690036 8.10297245 -18.08361044 7.83252311 -25.86328125 7.9921875 C-30.80332292 8.44544906 -34.20760902 9.74417992 -37.65234375 13.33984375 C-41.45919752 18.09367313 -41.07709019 22.75587421 -41.05859375 28.56640625 C-41.06942993 29.55103851 -41.08026611 30.53567078 -41.09143066 31.55014038 C-41.13726836 35.75408228 -41.14880706 39.95796213 -41.16357422 44.16210938 C-41.17923083 47.23460078 -41.21221591 50.30657063 -41.24609375 53.37890625 C-41.24307251 54.33205719 -41.24005127 55.28520813 -41.23693848 56.26724243 C-41.2521051 57.59409561 -41.2521051 57.59409561 -41.26757812 58.94775391 C-41.27065979 60.11426987 -41.27065979 60.11426987 -41.27380371 61.30435181 C-41.7500615 63.86529328 -42.62696507 64.75130007 -44.65234375 66.33984375 C-46.58984375 66.7734375 -46.58984375 66.7734375 -48.65234375 66.77734375 C-49.33296875 66.79667969 -50.01359375 66.81601563 -50.71484375 66.8359375 C-53.54427907 66.11146515 -54.17258349 64.821489 -55.65234375 62.33984375 C-56.0400238 59.49401855 -56.0400238 59.49401855 -56.05639648 56.16601562 C-56.07542274 54.2938739 -56.07542274 54.2938739 -56.09483337 52.38391113 C-56.09278201 51.02547032 -56.08979404 49.66703064 -56.0859375 48.30859375 C-56.09049993 46.91141506 -56.09580569 45.51423862 -56.1018219 44.11706543 C-56.11074862 41.19172028 -56.10833467 38.26664821 -56.09838867 35.34130859 C-56.08689184 31.59507082 -56.10712212 27.84977466 -56.13630581 24.10366058 C-56.15466261 21.21940134 -56.15437664 18.33536806 -56.14866829 15.45106506 C-56.14851505 14.06997862 -56.15456192 12.68887688 -56.16695976 11.30784607 C-56.18185714 9.37650733 -56.16856912 7.44501351 -56.15405273 5.51367188 C-56.15380348 3.86631042 -56.15380348 3.86631042 -56.15354919 2.18566895 C-55.53361493 -1.33429392 -54.46626715 -2.51790634 -51.65234375 -4.66015625 C-48.19995593 -5.16362947 -46.38452361 -5.07571779 -43.33984375 -3.34765625 C-41.65234375 -1.66015625 -41.65234375 -1.66015625 -40.65234375 1.33984375 C-39.90791016 0.83324219 -39.90791016 0.83324219 -39.1484375 0.31640625 C-26.84922038 -7.75860157 -12.67472909 -7.93337241 0 0 Z " fill="#F7F7F7" transform="translate(978.65234375,57.66015625)"/>
<path d="M0 0 C2.1942749 1.0202179 2.1942749 1.0202179 4 3 C4.38145407 5.81498434 4.50633884 8.23761428 4.45410156 11.05151367 C4.45468567 11.87125168 4.45526978 12.69098969 4.45587158 13.53556824 C4.45308342 16.24679825 4.42195769 18.95693067 4.390625 21.66796875 C4.38316519 23.5469757 4.37747103 25.42599043 4.37347412 27.30500793 C4.35819727 32.25195779 4.3188978 37.1984383 4.2746582 42.14520264 C4.23374971 47.19244029 4.21547256 52.23975374 4.1953125 57.28710938 C4.15240552 67.19161253 4.08412939 77.09576724 4 87 C4.60277267 86.98889694 5.20554535 86.97779388 5.82658386 86.96635437 C12.10437186 86.85567444 18.38188243 86.78029696 24.66040039 86.7253418 C27.00296284 86.70020875 29.34544695 86.66609692 31.68774414 86.62280273 C35.05634899 86.56210072 38.42391649 86.53377749 41.79296875 86.51171875 C43.36198189 86.47300911 43.36198189 86.47300911 44.96269226 86.43351746 C52.23980013 86.43071496 52.23980013 86.43071496 56.1652832 89.37036133 C58 92 58 92 58.5625 94.5625 C57.8111142 97.81850514 56.58885254 98.9142646 54 101 C51.26806641 101.50793457 51.26806641 101.50793457 48.1015625 101.51757812 C46.31951416 101.53649109 46.31951416 101.53649109 44.50146484 101.55578613 C43.22223145 101.54768921 41.94299805 101.53959229 40.625 101.53125 C39.30838379 101.5350769 37.99176758 101.53890381 36.63525391 101.54284668 C33.85104566 101.54873724 31.06735151 101.54019414 28.28320312 101.52148438 C24.71850667 101.49869376 21.15501482 101.5118194 17.59036255 101.53577423 C14.1851457 101.5537233 10.78025106 101.54114777 7.375 101.53125 C6.0957666 101.53934692 4.8165332 101.54744385 3.49853516 101.55578613 C2.31050293 101.54317749 1.1224707 101.53056885 -0.1015625 101.51757812 C-1.14650879 101.51439575 -2.19145508 101.51121338 -3.26806641 101.50793457 C-6 101 -6 101 -8.33729553 99.53236389 C-10.81843923 95.75348507 -10.55152933 92.39565247 -10.50170898 87.96459961 C-10.50711197 87.05199875 -10.51251495 86.13939789 -10.51808167 85.19914246 C-10.53058709 82.18321281 -10.514067 79.16823429 -10.49609375 76.15234375 C-10.49624868 74.05774383 -10.4977367 71.96314363 -10.50050354 69.86854553 C-10.5018883 65.47953615 -10.48931527 61.09085326 -10.46655273 56.7019043 C-10.43815055 51.07022888 -10.44090923 45.43909534 -10.45364285 39.80737972 C-10.46059015 35.48286798 -10.45282186 31.15848197 -10.44038582 26.83398628 C-10.43586333 24.75711105 -10.43554145 22.68022235 -10.43945122 20.60334587 C-10.44235457 17.70394987 -10.42589899 14.80530683 -10.40405273 11.90600586 C-10.40855438 11.04410645 -10.41305603 10.18220703 -10.41769409 9.29418945 C-10.34438655 3.45250607 -10.34438655 3.45250607 -8.69061375 1.27953434 C-5.87867445 -0.84867082 -3.39324756 -0.35718395 0 0 Z " fill="#F8F8F9" transform="translate(521,23)"/>
<path d="M0 0 C1.28648437 -0.01675781 2.57296875 -0.03351563 3.8984375 -0.05078125 C9.91278982 0.53552354 14.22866373 3.27262343 18.625 7.3125 C23.455388 14.11082385 24.55456699 21.13911222 23.625 29.3125 C21.38244731 36.81464791 17.79808724 42.32471205 10.875 46.125 C4.46286706 49.10105584 -0.247165 49.07063194 -7.0625 47.125 C-11.17495917 45.60134446 -13.59704954 43.78493808 -16.375 40.3125 C-17.07302734 39.55066406 -17.07302734 39.55066406 -17.78515625 38.7734375 C-21.35899475 34.25387572 -21.8407543 29.88761685 -21.875 24.25 C-21.88120361 23.57735107 -21.88740723 22.90470215 -21.89379883 22.21166992 C-21.74910214 16.43862513 -20.26975786 11.72600827 -16.69140625 7.16796875 C-16.11261719 6.61753906 -15.53382813 6.06710938 -14.9375 5.5 C-14.36128906 4.93667969 -13.78507812 4.37335938 -13.19140625 3.79296875 C-8.88348507 0.28178138 -5.55963872 0.01664562 0 0 Z " fill="#222326" transform="translate(282.375,64.6875)"/>
<path d="M0 0 C5.98127332 2.62900497 10.02686745 7.31545365 12.91015625 13.08203125 C14.63421692 22.04714672 14.14676439 30.70298162 9.03515625 38.45703125 C4.92163835 43.60143076 -0.3294044 46.47253619 -6.7578125 47.80859375 C-13.06802899 48.23299769 -18.35977568 45.91164604 -23.46484375 42.33203125 C-29.08168974 36.90048328 -31.37220096 30.94680013 -31.52734375 23.21875 C-31.21400988 14.72936049 -29.66077104 9.47450723 -23.625 3.515625 C-16.71929655 -2.02694146 -8.37885152 -2.27065548 0 0 Z " fill="#222326" transform="translate(379.46484375,65.66796875)"/>
<path d="M0 0 C1.19367187 -0.01675781 2.38734375 -0.03351563 3.6171875 -0.05078125 C10.07821931 0.61834565 14.24849829 3.7828389 18.578125 8.37109375 C22.87949847 13.76953469 23.7409061 19.71357652 23.54296875 26.5 C22.49327101 33.56338665 18.70602682 39.89959508 13.125 44.3125 C7.08974034 48.25362862 1.97510601 49.11374774 -5.09765625 47.9453125 C-11.88324115 46.2460065 -16.05512219 42.05605728 -19.875 36.3125 C-22.79351054 29.34419959 -23.14930219 21.15027 -21.22265625 13.8359375 C-17.22371038 4.94557715 -9.54116122 0.03077794 0 0 Z " fill="#222326" transform="translate(867.875,64.6875)"/>
<path d="M0 0 C2 2 2 2 2.6875 5.75 C2.59551289 8.42837798 2.46547657 9.56250619 0.48925781 11.41992188 C-0.20329102 11.84853516 -0.89583984 12.27714844 -1.609375 12.71875 C-2.42575439 13.22889648 -3.24213379 13.73904297 -4.08325195 14.26464844 C-5.04577881 14.83731445 -6.00830566 15.40998047 -7 16 C-8.13074951 16.67321289 -9.26149902 17.34642578 -10.42651367 18.04003906 C-14.91897289 20.69367132 -19.43639936 23.30392341 -23.95336914 25.91552734 C-25.89617056 27.04012004 -27.83681305 28.16837007 -29.77734375 29.296875 C-30.37312729 29.63958435 -30.96891083 29.9822937 -31.58274841 30.33538818 C-33.99721607 31.74025756 -36.01463835 33.01463835 -38 35 C-37.20940186 35.47832275 -36.41880371 35.95664551 -35.60424805 36.44946289 C-32.61601541 38.25820468 -29.62847137 40.06807388 -26.64135742 41.87866211 C-25.35874566 42.65579374 -24.0758763 43.43250042 -22.79272461 44.20874023 C-0.00386757 57.99613243 -0.00386757 57.99613243 2 60 C2.58525605 67.25717501 2.58525605 67.25717501 0.375 70.0625 C-2.84277493 71.33267432 -4.64460628 70.79628944 -8 70 C-11.01000977 68.53222656 -11.01000977 68.53222656 -14.19140625 66.640625 C-14.77045212 66.2995723 -15.34949799 65.95851959 -15.9460907 65.60713196 C-17.82399513 64.49749176 -19.69334962 63.37431287 -21.5625 62.25 C-22.85677037 61.47983928 -24.15136952 60.71023083 -25.44628906 59.94116211 C-29.30682596 57.64276783 -33.15456778 55.32355062 -37 53 C-38.11938965 52.32533691 -39.2387793 51.65067383 -40.39208984 50.95556641 C-43.35050586 49.16712988 -46.30237082 47.36864916 -49.25 45.5625 C-50.12986572 45.02592773 -51.00973145 44.48935547 -51.91625977 43.93652344 C-52.71217529 43.44313477 -53.50809082 42.94974609 -54.328125 42.44140625 C-55.0180957 42.01545166 -55.70806641 41.58949707 -56.41894531 41.15063477 C-58.90082502 39.34441193 -59.03661798 37.83022574 -59.6875 34.8125 C-59 31 -59 31 -57.24853516 29.39306641 C-49.9012412 24.47641115 -42.34151157 19.97777947 -34.6875 15.5625 C-32.82681432 14.4852353 -30.96692289 13.40664113 -29.10818481 12.32601929 C-27.88245219 11.61432252 -26.65514434 10.90533145 -25.42623901 10.1991272 C-22.36718059 8.43050264 -19.37189096 6.60937693 -16.43212891 4.64794922 C-15.85751419 4.27121567 -15.28289948 3.89448212 -14.69087219 3.5063324 C-13.12106652 2.46941192 -11.56547405 1.41106448 -10.01098633 0.35131836 C-6.19804795 -1.3599128 -4.00147895 -1.03171821 0 0 Z " fill="#F9F9F9" transform="translate(76,44)"/>
<path d="M0 0 C3.04760742 1.48364258 3.04760742 1.48364258 6.10546875 3.39453125 C6.66354721 3.73831818 7.22162567 4.0821051 7.7966156 4.43630981 C9.60061226 5.5508035 11.39388776 6.68138591 13.1875 7.8125 C14.43266406 8.58595282 15.67860236 9.35816054 16.92529297 10.12915039 C18.80861936 11.29444143 20.69120007 12.46080903 22.57086182 13.63200378 C29.03360738 17.65886254 35.57735561 21.54673077 42.13354492 25.41918945 C42.88611572 25.86738037 43.63868652 26.31557129 44.4140625 26.77734375 C45.0632666 27.16140381 45.7124707 27.54546387 46.38134766 27.94116211 C48 29 48 29 50 31 C50.90542677 35.93869145 50.90542677 35.93869145 50 39 C48.5222168 40.39575195 48.5222168 40.39575195 46.44921875 41.67578125 C45.63138916 42.1867334 44.81355957 42.69768555 43.97094727 43.22412109 C42.99053467 43.81016113 42.01012207 44.39620117 41 45 C40.4319162 45.34242737 39.8638324 45.68485474 39.27853394 46.03765869 C34.57907837 48.86893755 29.85420262 51.65628621 25.125 54.4375 C23.02165432 55.67540405 20.91879982 56.91410965 18.81732178 58.15518188 C17.4538539 58.96015848 16.08916263 59.7630668 14.72320557 60.56381226 C9.80492166 63.46447251 5.07508315 66.58469621 0.42529297 69.90258789 C-2.76920024 71.34805265 -4.66213013 70.88733687 -8 70 C-9.875 68.875 -9.875 68.875 -11 67 C-11.8125 63.75 -11.8125 63.75 -11 60 C-3.31871724 52.9804129 7.07845612 48.18862576 16.08374023 43.02954102 C18.02840646 41.91333807 19.96938152 40.79091993 21.91015625 39.66796875 C22.50796402 39.32839645 23.10577179 38.98882416 23.72169495 38.63896179 C26.9198938 36.88622833 26.9198938 36.88622833 29 34 C28.11183594 33.51273438 27.22367188 33.02546875 26.30859375 32.5234375 C17.61820344 27.71551931 9.06204537 22.70022068 0.5625 17.5625 C-0.46238525 16.94745605 -1.48727051 16.33241211 -2.54321289 15.69873047 C-3.49703857 15.11881348 -4.45086426 14.53889648 -5.43359375 13.94140625 C-6.71834595 13.16325562 -6.71834595 13.16325562 -8.02905273 12.36938477 C-10 11 -10 11 -11 9 C-11.57003257 2.72964169 -11.57003257 2.72964169 -9.4375 0 C-5.95934394 -1.42693582 -3.65523628 -0.75928411 0 0 Z " fill="#F9F9F9" transform="translate(1016,44)"/>
<path d="M0 0 C3.4375 0.5 3.4375 0.5 5.375 1.5625 C7.03325974 4.5863854 6.64463338 7.08575144 6.4375 10.5 C5.63362393 13.18511181 4.79165212 15.66584702 3.75 18.25 C3.47744385 18.9517334 3.2048877 19.6534668 2.92407227 20.37646484 C1.00943845 25.24531227 -1.12251508 29.99191708 -3.34765625 34.7265625 C-5.25920157 39.09054057 -6.74812284 43.59616567 -8.3125 48.09375 C-9.76903032 52.06279512 -11.51377262 55.83395431 -13.3125 59.65625 C-14.73346239 62.88893945 -15.90250735 66.16502113 -17.0625 69.5 C-18.87545664 74.71225033 -20.9585024 79.6570333 -23.30859375 84.64453125 C-24.75630358 87.94134085 -25.94318867 91.28663009 -27.125 94.6875 C-31.93093675 108.41229117 -31.93093675 108.41229117 -36.5625 111.5 C-43.01533019 111.04716981 -43.01533019 111.04716981 -45.5625 108.5 C-46.19983202 101.86793217 -44.63350377 97.04046702 -42.13769531 90.95043945 C-41.7734848 90.0307135 -41.40927429 89.11098755 -41.0340271 88.16339111 C-39.83304404 85.14110465 -38.61239162 82.12721937 -37.390625 79.11328125 C-36.54728121 77.00715273 -35.70490877 74.90063503 -34.86346436 72.79374695 C-33.09989421 68.3865622 -31.3269655 63.98330092 -29.546875 59.58276367 C-27.26739344 53.94646808 -25.00784134 48.30244608 -22.75477982 42.65554523 C-21.01821187 38.3077104 -19.27297891 33.96339689 -17.52492523 29.62016869 C-16.68862153 27.54027622 -15.85458283 25.45947151 -15.0228653 23.37774086 C-13.85870508 20.46876943 -12.68340017 17.5645562 -11.50488281 14.66137695 C-11.16393585 13.80360153 -10.82298889 12.94582611 -10.47171021 12.0620575 C-5.87227965 0.8241796 -5.87227965 0.8241796 0 0 Z " fill="#F6F6F6" transform="translate(133.5625,22.5)"/>
<path d="M0 0 C4.69311685 3.40706847 7.84141519 7.21897437 9.5625 12.8125 C9.5625 14.1325 9.5625 15.4525 9.5625 16.8125 C-4.6275 16.8125 -18.8175 16.8125 -33.4375 16.8125 C-32.15460125 10.39800625 -29.68101104 6.05601104 -25.0625 1.4375 C-17.78605721 -3.06696459 -7.57718928 -4.495422 0 0 Z " fill="#292A2D" transform="translate(471.4375,66.1875)"/>
<path d="M0 0 C5.55338823 3.41746968 10.5838131 8.52038428 12.25 15 C12.25 15.99 12.25 16.98 12.25 18 C-1.94 18 -16.13 18 -30.75 18 C-29.3550979 9.63058737 -26.27164787 6.0398231 -19.65234375 1.19921875 C-13.87697231 -2.44151848 -6.33593129 -1.68958168 0 0 Z " fill="#292A2D" transform="translate(632.75,65)"/>
</svg>
